<?xml version="1.0" encoding="UTF-8" standalone="no"?>
<!-- Created with Inkscape (http://www.inkscape.org/) -->

<svg
   version="1.1"
   id="svg1"
   width="691.20001"
   height="236"
   viewBox="0 0 691.20001 236"
   sodipodi:docname="nuevo logo.svg"
   inkscape:version="1.4.3 (0d15f75, 2025-12-25)"
   xmlns:inkscape="http://www.inkscape.org/namespaces/inkscape"
   xmlns:sodipodi="http://sodipodi.sourceforge.net/DTD/sodipodi-0.dtd"
   xmlns="http://www.w3.org/2000/svg"
   xmlns:svg="http://www.w3.org/2000/svg">
  <defs
     id="defs1" />
  <sodipodi:namedview
     id="namedview1"
     pagecolor="#ffffff"
     bordercolor="#000000"
     borderopacity="0.25"
     inkscape:showpageshadow="2"
     inkscape:pageopacity="0.0"
     inkscape:pagecheckerboard="0"
     inkscape:deskcolor="#d1d1d1"
     showgrid="false"
     inkscape:zoom="1.6290509"
     inkscape:cx="345.60001"
     inkscape:cy="118.16696"
     inkscape:window-width="1920"
     inkscape:window-height="991"
     inkscape:window-x="-9"
     inkscape:window-y="-9"
     inkscape:window-maximized="1"
     inkscape:current-layer="g1" />
  <g
     inkscape:groupmode="layer"
     inkscape:label="Image"
     id="g1">
    <path
       style="fill:#dd4b24;fill-opacity:1"
       d="m 167.48916,227.88305 c -6.75509,-1.24633 -16.2837,-4.6746 -28,-10.07405 -21.17232,-9.75725 -23.6475,-10.73121 -28.27054,-11.12423 -9.29908,-0.79056 -10.26368,-1.66583 -4.59788,-4.17209 1.94237,-0.8592 3.92237,-2.29238 4.4,-3.18484 0.58496,-1.09299 0.86842,-12.5722 0.86842,-35.16736 0,-32.72492 -0.0405,-33.59622 -1.65806,-35.65259 -0.91194,-1.15934 -2.32249,-2.10789 -3.13457,-2.10789 -2.3299,0 -4.00737,-0.87302 -4.00737,-2.08559 0,-0.91009 2.56678,-1.11441 14,-1.11441 13.46667,0 14,0.0609 14,1.6 0,1.18095 -0.53333,1.6 -2.03636,1.6 -1.12,0 -2.88236,0.84599 -3.91634,1.87998 -2.63373,2.63373 -3.14402,11.09336 -2.68927,44.58344 0.30007,22.09934 0.5829,27.34154 1.55408,28.80421 0.86715,1.30599 5.37998,3.27418 16.73758,7.29978 33.23997,11.78162 47.36298,13.58384 59.654,7.61241 2.84053,-1.38004 3.68478,-1.5062 4.49671,-0.67194 0.80476,0.82688 0.37587,1.57436 -2.2004,3.83483 -8.69829,7.63209 -21.68134,10.63455 -35.2,8.14034 z M 418.24301,203.4 c -2.35304,-2.53 -9.87505,-10.54 -16.71558,-17.8 -6.84053,-7.26 -14.77754,-15.71374 -17.6378,-18.78609 -2.86025,-3.07235 -7.266,-7.75235 -9.79054,-10.4 l -4.59007,-4.81391 -0.01,23.622 c -0.0108,25.8357 0.15339,26.81306 4.59197,27.3257 1.27671,0.14746 2.29042,0.81155 2.43949,1.59813 0.22322,1.17775 -0.77507,1.37758 -7.99316,1.6 -10.56468,0.32555 -14.24822,-0.0277 -14.24822,-1.36629 0,-0.57883 1.04267,-1.28142 2.31704,-1.56132 5.22616,-1.14786 5.0719,0.008 5.01607,-37.58268 -0.0472,-31.77511 0.0415,-34.03554 1.33599,-34.03554 0.7626,0 5.66881,4.59 10.90269,10.2 5.23388,5.61 12.96136,13.84685 17.17217,18.30411 4.21082,4.45725 11.61604,12.43739 16.45604,17.73364 4.84,5.29625 9.07,9.6594 9.4,9.6959 0.33,0.0365 0.6,-10.21153 0.6,-22.77338 0,-25.90727 -0.21914,-27.07864 -5.24206,-28.02094 -2.03678,-0.38211 -2.76751,-0.90044 -2.58813,-1.83588 0.21356,-1.11373 1.81143,-1.33608 10.97791,-1.52763 7.84279,-0.16389 10.89185,0.041 11.33733,0.7618 0.81649,1.3211 0.14065,2.26238 -1.62438,2.26238 -0.79469,0 -2.39345,0.74613 -3.55279,1.65806 l -2.10788,1.65807 v 34.34193 c 0,28.3588 -0.18885,34.34194 -1.08396,34.34194 -0.59617,0 -3.00916,-2.07 -5.3622,-4.6 z m -246.35385,2.2914 c -6.91889,-2.23692 -11.14671,-4.73377 -15.66326,-9.25032 -13.97464,-13.97463 -14.49578,-38.11809 -1.1369,-52.67003 8.08938,-8.81182 17.03222,-12.1142 31.55622,-11.65297 8.19428,0.26022 9.30738,0.49256 14.46078,3.0185 7.76916,3.80804 15.51061,11.60423 17.90986,18.03651 8.91484,23.90025 -1.52938,46.87556 -24.03147,52.8647 -5.99532,1.59572 -17.62788,1.42125 -23.09523,-0.34639 z m 23.92306,-6.57924 c 9.37657,-4.68553 14.37266,-13.70354 15.07902,-27.21785 0.81421,-15.57783 -4.75549,-27.11485 -15.67364,-32.46619 -3.87094,-1.89727 -5.51575,-2.21936 -11.32844,-2.21832 -5.86397,0.001 -7.37407,0.30308 -10.97046,2.19421 -5.77771,3.03817 -9.13034,6.17854 -11.76597,11.02106 -3.08771,5.67314 -4.44284,11.27336 -4.45407,18.40685 -0.0175,11.11105 3.70075,20.60774 10.43303,26.64676 4.98194,4.46892 9.30575,5.99029 17.2297,6.06241 5.70736,0.052 7.06056,-0.23509 11.45083,-2.42893 z m 243.94955,6.39372 c -0.86099,-0.54446 -0.69429,-1.35178 0.84498,-4.09208 2.20374,-3.92324 23.70568,-37.2601 33.05337,-51.24633 3.46733,-5.1879 6.50583,-9.9579 6.75223,-10.6 0.38302,-0.99813 -1.76374,-1.16747 -14.79995,-1.16747 -9.47104,0 -15.98652,0.33651 -17.19737,0.88822 -2.06969,0.94301 -3.72586,3.76538 -3.72586,6.34942 0,1.03829 -0.54642,1.56236 -1.62897,1.56236 -1.5429,0 -1.61687,-0.41213 -1.4,-7.8 0.21524,-7.3324 0.32489,-7.77814 1.82897,-7.4354 0.88,0.20053 12.74862,0.43641 26.37472,0.52417 17.41258,0.11215 24.86328,0.42522 25.07271,1.05353 0.16389,0.49167 -3.42473,6.6571 -7.97472,13.70094 -29.07481,45.01071 -33.47271,51.9509 -33.47271,52.82224 0,0.99549 28.43569,0.93792 32.04548,-0.0649 3.563,-0.9898 6.57854,-4.09204 8.74906,-9.0006 1.84875,-4.18088 4.00546,-5.09571 4.00546,-1.69903 0,1.15554 -0.75,5.29554 -1.66666,9.2 l -1.66665,7.09903 -24.13335,0.0992 c -13.27334,0.0545 -25.45067,0.18596 -27.06074,0.29208 -1.61007,0.10611 -3.41007,-0.11229 -4,-0.48535 z m -211.07261,-0.99015 c 0,-0.59635 1.16544,-1.41852 2.58985,-1.82703 4.50677,-1.29253 4.58544,-1.8747 4.59836,-34.03064 l 0.0118,-29.34193 -2.10788,-1.65807 c -1.15934,-0.91193 -2.77934,-1.65806 -3.6,-1.65806 -1.81584,0 -1.98614,-2.03924 -0.22669,-2.71441 2.10883,-0.80923 26.77433,-0.53153 32.33457,0.36405 7.67681,1.23649 12.68294,4.35578 15.47526,9.64256 2.07588,3.93033 2.24676,4.87506 1.95004,10.78149 -0.26456,5.26646 -0.73923,7.18015 -2.54536,10.26207 -1.89847,3.23951 -7.07089,7.59456 -10.29718,8.66999 -0.98013,0.32671 14.19015,21.56031 18.0427,25.25408 1.52579,1.4629 4.16925,3.13824 5.87436,3.72298 1.7051,0.58473 3.21658,1.63781 3.35884,2.34017 0.21636,1.06814 -0.61901,1.27702 -5.10718,1.27702 -11.35007,0 -15.44446,-3.03726 -26.32451,-19.52782 -8.02773,-12.16737 -9.27033,-13.58248 -12.62698,-14.37997 -1.4837,-0.35251 -2.2,-1.03867 -2.2,-2.10745 0,-1.42404 0.55075,-1.58476 5.43049,-1.58476 7.37517,0 11.8901,-2.25268 14.36951,-7.16951 3.57718,-7.09377 1.62659,-17.09216 -3.983,-20.41616 -1.92588,-1.14119 -4.57124,-1.63713 -10.017,-1.87795 l -7.4,-0.32723 v 30.77144 c 0,28.79487 0.094,30.85647 1.463,32.09542 0.80464,0.72819 2.24464,1.32399 3.2,1.32399 1.20367,0 1.737,0.49127 1.737,1.6 0,1.52889 -0.53333,1.6 -12,1.6 -9.56408,0 -12,-0.2201 -12,-1.08427 z m 67.20001,-0.0522 c 0,-0.62504 1.07561,-1.37268 2.39025,-1.66142 1.31463,-0.28874 3.11463,-1.44589 4,-2.57145 1.54605,-1.96549 1.60975,-3.19902 1.60975,-31.17494 v -29.12848 l -1.96364,-1.96363 c -1.08,-1.08 -2.7,-1.96364 -3.6,-1.96364 -1.08626,0 -1.63636,-0.52183 -1.63636,-1.55228 0,-1.49125 0.84153,-1.56246 21.4,-1.8111 11.77,-0.14235 21.94,-0.43383 22.6,-0.64772 1.00821,-0.32674 1.2,0.79381 1.2,7.0111 0,7.06309 -0.67266,9.21282 -2.06517,6.6 -0.35174,-0.66 -0.8364,-2.14443 -1.07701,-3.29873 -0.67748,-3.25015 -3.60427,-3.98297 -14.88628,-3.72727 l -9.97154,0.226 -0.2189,13.8 -0.21889,13.8 h 9.52094 c 10.16037,0 10.66174,-0.18119 11.62178,-4.2 0.28905,-1.21 1.05869,-2.2 1.71031,-2.2 0.97766,0 1.18476,1.60816 1.18476,9.2 0,7.41574 -0.22041,9.2 -1.13644,9.2 -0.62504,0 -1.3743,-1.08299 -1.66503,-2.40665 -0.29072,-1.32366 -1.19566,-2.76366 -2.01097,-3.2 C 331.86142,172.35701 327.20238,172 322.3233,172 h -8.87105 l 0.21846,14.2 0.21846,14.2 8.21016,0.2281 c 12.86831,0.35751 17.46705,-1.68685 21.44264,-9.53231 1.80077,-3.55365 3.6542,-4.86429 4.63488,-3.27753 0.21016,0.34005 -0.86678,4.48005 -2.39319,9.2 l -2.7753,8.58174 h -23.5596 c -19.82286,0 -23.55959,-0.18025 -23.55959,-1.13644 z m 203.6283,0.38224 c -0.25636,-0.41481 1.13961,-1.46449 3.10216,-2.33262 2.56224,-1.1334 4.0093,-2.44322 5.13256,-4.6458 1.95247,-3.82856 9.73698,-22.28942 9.73698,-23.09112 0,-0.32519 -2.51961,-0.41097 -5.59914,-0.19063 -4.3162,0.30882 -6.35306,0.89953 -8.88945,2.57804 -3.94819,2.61279 -5.59405,1.7742 -2.99723,-1.52712 2.70636,-3.44058 7.40752,-5.19869 13.95549,-5.21898 l 5.66967,-0.0176 4.46718,-10.6 c 2.45695,-5.83 6.16985,-14.65 8.25088,-19.6 2.08103,-4.95 4.23339,-9 4.78302,-9 0.86109,0 5.17876,9.64871 18.61546,41.6 3.78542,9.0014 3.83281,9.05427 7.57893,8.45525 7.44711,-1.19085 11.89313,-5.5126 12.05586,-11.71893 0.13467,-5.13578 -2.99278,-6.94779 -7.2158,-4.18076 -1.94955,1.27739 -2.12757,1.27525 -3.08724,-0.0372 -2.19887,-3.00714 1.03996,-6.91838 5.72899,-6.91838 3.27876,0 7.07797,3.14757 8.31182,6.88617 2.81961,8.54349 -3.9149,17.88746 -13.84878,19.21487 -4.47799,0.59836 -4.47913,0.48672 0.10079,9.89896 2.52206,5.18311 3.38245,6.21502 6.31955,7.5793 6.30872,2.93039 4.59282,3.6207 -9,3.6207 -9.54551,0 -12.4,-0.23587 -12.4,-1.02461 0,-0.56354 1.08,-1.43226 2.4,-1.93051 3.09395,-1.16783 3.10621,-3.49448 0.0581,-11.02045 l -2.25817,-5.57557 -9.49997,-3.315 c -5.22499,-1.82325 -10.98647,-3.87293 -12.80328,-4.55483 -3.30017,-1.23865 -3.30423,-1.2378 -4.27666,0.89057 -2.75764,6.0357 -7.25242,19.1126 -7.05075,20.51315 0.12689,0.88125 1.22071,2.07528 2.43071,2.65341 1.21,0.57813 2.2,1.5715 2.2,2.20749 0,0.95111 -1.9085,1.15635 -10.75279,1.15635 -5.91403,0 -10.96254,-0.33939 -11.21891,-0.7542 z m 46.90299,-28.69397 c -4.74113,-12.47763 -10.19465,-25.73986 -10.5867,-25.7454 -0.47336,-0.007 -8.74503,20.17591 -8.74401,21.33507 4.2e-4,0.46649 18.25859,7.75271 20.59616,8.21924 0.10821,0.0216 -0.46125,-1.69242 -1.26545,-3.80891 z M 51.694932,127.17305 C 37.529392,124.78827 25.543206,117.16393 18.020624,105.75302 13.503272,98.900711 11.633018,94.556142 9.4464795,85.835412 c -1.533695,-6.11695 -1.708432,-8.44534 -1.33848,-17.83541 0.563852,-14.31164 3.6633545,-24.16393 10.9200215,-34.71113 12.405348,-18.03056 40.375683,-25.37517 64.080942,-16.82674 2.87089,1.03528 5.99007,1.6809 6.93151,1.4347 2.03505,-0.53218 2.43165,0.11299 5.39996,8.78442 3.042756,8.88897 3.066886,18.02148 0.0638,24.15954 -2.40295,4.91145 -7.20594,9.22667 -12.01509,10.79489 -9.10204,2.96811 -20.129186,-0.15847 -24.029046,-6.81308 -5.456781,-9.31129 -1.48405,-19.67265 7.634524,-19.91175 3.944242,-0.10342 6.631932,2.40863 6.234362,5.82697 -0.21536,1.85187 -0.58345,2.06218 -3.60933,2.06218 -4.203644,0 -6.176421,1.78281 -6.071428,5.48678 0.171689,6.05692 4.31871,9.31301 11.840938,9.29707 6.23108,-0.0132 10.31514,-2.26333 13.5217,-7.44982 1.97316,-3.19151 2.37591,-4.68895 2.36427,-8.79042 -0.0169,-5.95416 -1.94254,-10.16304 -6.55725,-14.33216 -6.32672,-5.7158 -11.5284,-7.39562 -22.928717,-7.40456 -8.723245,-0.007 -8.860126,0.0225 -15.693516,3.36443 -10.650945,5.20892 -17.316824,13.5139 -21.594649,26.90466 -3.499417,10.95412 -3.924237,25.30454 -1.069392,36.12402 7.006869,26.555088 29.69434,40.769788 53.659474,33.620038 5.51809,-1.64627 12.52173,-6.98612 15.96328,-12.17104 1.55118,-2.33695 3.110936,-4.249 3.466126,-4.249 0.88895,0 1.71241,7.58131 1.13632,10.46174 -0.92392,4.6196 -12.276126,11.09858 -23.062586,13.16237 -6.52918,1.24924 -16.732039,1.40403 -22.999291,0.34894 z m 609.189508,-0.0451 c -8.92319,-1.51985 -20.84266,-9.42352 -28.97854,-19.21537 -5.51764,-6.64069 -30.69129,-36.169478 -38.36369,-45.000768 -3.76917,-4.33849 -7.6596,-8.83849 -8.64539,-10 l -1.79236,-2.11181 0.19236,24.51723 c 0.17964,22.89689 0.29379,24.629249 1.72728,26.212088 0.84422,0.93218 2.64366,1.98216 3.99878,2.33331 1.35511,0.35114 2.58079,1.2457 2.72373,1.98791 0.2342,1.2161 -0.89225,1.34946 -11.39878,1.34946 -11.12533,0 -11.65866,-0.0732 -11.65866,-1.6 0,-1.14135 0.53333,-1.6 1.86055,-1.6 1.0233,0 2.6433,-0.8332 3.6,-1.85156 1.72076,-1.83166 1.73945,-2.167359 1.73945,-31.235908 v -29.38434 l -7.24415,-7.4882 c -11.20346,-11.58089 -20.91446,-15.89711 -31.46306,-13.98428 -7.603,1.37868 -16.05957,6.43895 -18.43399,11.03058 l -1.09304,2.11371 6.91712,0.0273 c 16.23035,0.0641 30.43226,9.38488 35.47817,23.28455 2.34976,6.47275 2.86233,18.21597 1.09602,25.11053 -4.28549,16.72791 -18.89566,27.177608 -37.99818,27.177608 -13.09626,0 -26.6431,-7.20394 -32.57225,-17.321258 -6.83439,-11.66201 -6.85834,-28.85461 -0.0564,-40.46131 2.94202,-5.02018 10.28947,-11.60609 15.69749,-14.0705 3.98283,-1.81496 5.24948,-2.94915 8.19177,-7.33507 3.87802,-5.78077 9.4888,-10.15554 16.5975,-12.94122 3.66833,-1.4375 6.15475,-1.76246 13.68296,-1.78828 10.88258,-0.0373 15.65152,1.37824 24.14054,7.16566 6.88874,4.69642 11.50054,9.6344 39.05946,41.82207 l 22.8,26.62946 0.21176,-24.5857 c 0.20963,-24.33421 0.19388,-24.60477 -1.53941,-26.44977 -0.96317,-1.02525 -2.58846,-1.86408 -3.61176,-1.86408 -1.33584,0 -1.86055,-0.45759 -1.86055,-1.62258 0,-1.56216 0.4092,-1.61429 10.99006,-1.4 9.72715,0.197 11.02093,0.38346 11.25866,1.62258 0.19256,1.00365 -0.2576,1.4072 -1.59006,1.42544 -2.43618,0.0334 -4.39797,1.58473 -5.42721,4.29183 -0.51695,1.35969 -0.83145,12.62813 -0.83145,29.79067 v 27.603779 l 2.31033,3.344139 c 5.20124,7.52864 17.44089,17.4536 24.27483,19.68411 2.66936,0.87125 7.88831,1.11846 13.33387,0.6316 3.2996,-0.295 2.72268,1.60753 -0.87945,2.90022 -4.54108,1.62963 -11.24505,2.14175 -16.44431,1.25618 z M 529.49288,102.82409 c 9.71687,-1.24911 18.16702,-10.242148 20.81215,-22.149268 1.47651,-6.64654 0.64557,-19.0624 -1.67134,-24.9729 -2.43992,-6.22431 -8.26642,-12.55301 -13.72843,-14.91171 -8.33796,-3.60065 -19.86071,-2.88118 -21.46571,1.34028 -1.08266,2.84764 -0.85928,10.56725 0.40867,14.12247 1.42445,3.99402 3.20727,5.87983 6.62514,7.00783 2.41487,0.79698 3.07524,0.70957 4.90327,-0.649 1.16189,-0.86352 2.22645,-2.52442 2.36568,-3.69091 0.53677,-4.49726 5.74686,-1.39207 5.74686,3.4251 0,7.46686 -8.70902,10.90325 -17.01577,6.71406 -5.28743,-2.66651 -8.55153,-10.43257 -8.616,-20.49942 l -0.0318,-4.96062 -3.45136,3.74831 c -5.46916,5.93971 -7.28511,11.78547 -7.28511,23.45169 0,8.18281 0.2822,10.34367 1.9116,14.63761 2.23146,5.8805 7.59694,12.26067 12.39835,14.743038 3.85232,1.99168 10.6035,3.7596 12.89005,3.37548 0.88,-0.14783 3.22167,-0.47724 5.20371,-0.73204 z m -401.39208,4.74264 c -13.72131,-3.69532 -22.79773,-13.295768 -26.19533,-27.707718 -0.65596,-2.78246 -1.19798,-6.86625 -1.20448,-9.07509 -0.0147,-5.0063 2.63424,-14.74965 5.38331,-19.80058 6.49977,-11.94222 23.36772,-19.54436 38.57904,-17.387 20.61572,2.92383 32.82582,16.72645 32.82582,37.10715 0,15.94372 -7.14843,27.92291 -20.40346,34.191658 -8.34292,3.94565 -20.19703,5.03826 -28.9849,2.67158 z m 22.76162,-7.03009 c 13.67281,-6.999758 19.53599,-25.107458 13.77316,-42.536638 -5.55396,-16.79749 -22.67275,-24.26304 -37.50654,-16.35671 -2.72792,1.45397 -6.02513,3.92903 -7.32715,5.50014 -6.92068,8.35105 -9.62969,21.83396 -6.68837,33.28849 2.79293,10.87664 8.09802,17.6205 16.55966,21.050778 6.04806,2.45183 15.36457,2.03587 21.18924,-0.94606 z m 177.02675,7.43819 c -5.76227,-1.21048 -13.32313,-5.37437 -17.93524,-9.877228 -7.28432,-7.11177 -10.83867,-16.06779 -10.85527,-27.3524 -0.0268,-18.23986 10.79163,-32.30246 27.99051,-36.38403 9.40924,-2.23296 21.69111,-0.82898 31.2549,3.57285 l 4.45491,2.05042 0.94509,7.09845 c 1.19947,9.00902 1.18639,9.71711 -0.1795,9.71711 -0.61853,0 -2.20831,-2.31586 -3.53286,-5.14635 -2.48727,-5.31518 -6.09767,-8.72012 -12.14254,-11.45155 -4.47893,-2.02384 -16.25202,-1.84022 -20.94054,0.32661 -10.91333,5.04366 -16.77504,15.55553 -16.74324,30.02581 0.0179,8.15444 0.62448,11.21369 3.39422,17.11898 4.56317,9.72901 11.86963,14.649258 22.7667,15.331298 14.33726,0.89736 23.9998,-6.362178 27.32461,-20.529198 1.08518,-4.62396 1.61932,-5.6756 2.88266,-5.6756 1.45851,0 1.5234,0.45707 1.09179,7.69133 -0.39352,6.59605 -0.78296,8.21554 -2.73468,11.37238 -4.85811,7.857808 -13.5961,12.110778 -25.84152,12.577628 -4.18,0.15936 -9.22,-0.0506 -11.2,-0.46651 z m 76.88666,-0.0401 c -1.93233,-0.37949 -5.8054,-1.76257 -8.60682,-3.07351 -25.61571,-11.987038 -28.0788,-50.216478 -4.22859,-65.631618 11.33133,-7.32379 29.5354,-7.74919 43.14875,-1.00832 4.38311,2.17037 4.40203,2.19561 4.93023,6.57873 0.29163,2.42 0.75403,6.11 1.02755,8.2 0.44369,3.39016 0.33115,3.8 -1.0435,3.8 -1.01446,0 -1.72841,-0.75155 -2.08992,-2.2 -1.38746,-5.55907 -5.96336,-10.59085 -12.42436,-13.66216 -3.654,-1.73696 -5.55292,-2.09551 -11.2,-2.11471 -5.7139,-0.0194 -7.52168,0.31522 -11.31837,2.09524 -8.65946,4.05986 -13.29888,10.58809 -15.64254,22.011 -3.19432,15.56902 3.30063,31.8735 15.12771,37.975558 4.83298,2.49353 14.86012,3.00169 21.01699,1.06511 8.47355,-2.665259 15.09893,-10.726338 17.27145,-21.014108 0.68974,-3.26621 1.20136,-4.18209 2.2205,-3.97504 1.13814,0.23122 1.28659,1.27256 1.05624,7.40927 -0.18408,4.90411 -0.72667,8.03927 -1.73257,10.01099 -1.66537,3.2644 -7.42165,8.845288 -11.06826,10.731028 -6.13534,3.1727 -18.10199,4.44091 -26.44449,2.80254 z M 184.28916,106.4 c -0.74424,-1.20421 0.2939,-2.4 2.08358,-2.4 0.87403,0 2.47279,-0.88364 3.55279,-1.96364 l 1.96363,-1.96363 V 70.800002 41.527272 l -1.96363,-1.96364 c -1.08,-1.08 -2.7264,-1.96363 -3.65866,-1.96363 -1.18369,0 -1.61369,-0.42234 -1.42541,-1.4 0.24239,-1.25865 1.47339,-1.4 12.19199,-1.4 8.82412,0 12.00897,0.25976 12.25557,0.99958 0.18326,0.54977 -0.32674,1.21241 -1.13333,1.47254 -3.31539,1.06923 -4.93669,2.20658 -5.77816,4.05341 -0.59925,1.31521 -0.88837,11.44056 -0.88837,31.11211 V 101.6 h 10.6817 c 9.78424,0 10.91008,-0.15299 13.4,-1.820959 1.49507,-1.00152 3.9388,-3.881519 5.43053,-6.399999 2.93045,-4.94747 5.35908,-6.18409 4.67229,-2.37904 -0.2184,1.21 -1.24627,5.35 -2.28415,9.199998 l -1.88705,7 h -23.35945 c -14.71001,0 -23.54251,-0.29622 -23.85387,-0.8 z m 57.339,-0.53029 c 0.14355,-0.74505 1.28525,-1.62856 2.5371,-1.96334 4.49708,-1.20266 4.47184,-1.02089 4.48667,-32.306368 0.015,-31.61698 -0.0695,-32.23358 -4.59973,-33.57259 -1.68446,-0.49788 -2.53028,-1.20902 -2.37877,-2 0.20234,-1.05635 3.35565,-1.28567 22.62542,-1.6454 12.31467,-0.22989 22.44726,-0.40989 22.51687,-0.4 0.0696,0.01 0.24085,3.07474 0.38055,6.81078 0.22127,5.91755 0.0761,6.82704 -1.12656,7.05866 -0.93907,0.18085 -1.38054,-0.25028 -1.38054,-1.34818 0,-0.88773 -0.85275,-2.60542 -1.89498,-3.81709 -1.77479,-2.06332 -2.38218,-2.22435 -9.57631,-2.539 -4.22474,-0.18478 -9.3206,-0.0901 -11.32413,0.21031 l -3.6428,0.54628 0.21911,13.34811 0.2191,13.34812 8.29609,0.22905 c 9.08587,0.25085 11.76434,-0.62432 12.24569,-4.00117 0.14202,-0.99635 0.88823,-1.93161 1.65823,-2.07837 1.26805,-0.24168 1.4,0.60574 1.4,8.99183 0,7.69659 -0.20246,9.25866 -1.2,9.25866 -0.66,0 -1.2,-0.6399 -1.2,-1.422 0,-0.78209 -0.56042,-2.22209 -1.24537,-3.2 -1.16872,-1.66857 -1.8334,-1.778 -10.8,-1.778 h -9.55464 v 14.05902 14.059018 l 11.55792,-0.25902 11.55792,-0.25902 2.75223,-2.669848 c 1.51373,-1.46841 3.56927,-4.25841 4.56786,-6.2 1.67165,-3.25021 3.34592,-4.41098 4.2264,-2.93015 0.19621,0.33 -0.78327,4.38 -2.17662,9 L 288.2415,106.8 l -23.43717,0.21218 c -21.65844,0.19608 -23.41737,0.10937 -23.17617,-1.14247 z M 452.68917,105.6 c 0,-1.16058 0.53333,-1.6 1.94193,-1.6 1.14505,0 2.62234,-0.86499 3.6,-2.10789 1.60813,-2.044389 1.65807,-2.980909 1.65807,-31.092108 0,-28.11121 -0.0499,-29.04772 -1.65807,-31.09211 -0.97766,-1.24291 -2.45495,-2.10789 -3.6,-2.10789 -1.41692,0 -1.94193,-0.4382 -1.94193,-1.62084 0,-1.56653 0.40843,-1.61344 12.18991,-1.4 10.66686,0.19325 12.2221,0.38855 12.44754,1.56311 0.18147,0.94547 -0.38341,1.41847 -1.91079,1.6 -1.2427,0.1477 -2.88527,1.22183 -3.84754,2.51603 -1.63227,2.19529 -1.67912,3.05853 -1.67912,30.93522 v 28.676919 l 1.93945,2.064779 c 1.0667,1.13563 2.7767,2.06478 3.8,2.06478 1.32722,0 1.86055,0.45865 1.86055,1.6 0,1.53118 -0.53333,1.6 -12.4,1.6 -11.86667,0 -12.4,-0.0688 -12.4,-1.6 z"
       id="path1" />
  </g>
</svg>
